<svg xmlns="http://www.w3.org/2000/svg" viewBox="0 0 395.37 625.73">
  <title>Cardskipper</title>
  <g>
    <path style="fill: #00dbfe;"
      d="M47.63,29.1H401.69A20.41,20.41,0,0,1,422.1,49.51V612.42a42.4,42.4,0,0,1-42.4,42.4l-352.15-354L27.23,49.53A20.4,20.4,0,0,1,47.63,29.1Z"
      transform="translate(-27.23 -29.1)" />
    <path style="fill: #00aacb;"
      d="M422.1,497.72V606.09a48.73,48.73,0,0,1-48.73,48.73L27.32,220.6l0-14.42V149.25c1.4-.33,163-56,219.18-75.36a20.42,20.42,0,0,1,25.84,12.33Z"
      transform="translate(-27.23 -29.1)" />
    <path style="fill: #007a98;"
      d="M72.91,203.13a26.27,26.27,0,0,0-35.51-4.29l-10.1,7.34.57,365.75a83,83,0,0,0,83,82.89h291.2a20.29,20.29,0,0,0,20.29-20l.23-17.54ZM224.2,585.4a33,33,0,1,1,33-33A33,33,0,0,1,224.2,585.4Z"
      transform="translate(-27.23 -29.1)" />
    <path style="fill: #014a66;"
      d="M254,566.63a33,33,0,1,1-56.39-33.75L28,431.39v203a20.42,20.42,0,0,0,20.42,20.42c88.5,0,341,0,352.41-.32Z"
      transform="translate(-27.23 -29.1)" />
  </g>
</svg>