<svg xmlns="http://www.w3.org/2000/svg" viewBox="0 0 720 720">
  <circle cx="85.66" cy="223.66" r="10.79" />
  <circle cx="574.19" cy="232.03" r="10.62" />
  <circle cx="88.08" cy="260.89" r="6.11" />
  <rect x="-27.41" y="-4.14" transform="rotate(43 -325.118 219.842)" width="54.82" height="8.28" rx="4.01" />
  <circle cx="571.41" cy="268.52" r="6.02" />
  <rect x="-27" y="-4.03" transform="rotate(-42.5 668.914 -622.45)" width="54" height="8.06" rx="3.97" />
  <path
    d="M165.5 357l.14.51a.61.61 0 001.1.17q.54-.87-.09-1.07-.41-.13-.77.12l-.38.27q-.05-.54.04-.7 7.58-13.14 13.46-27.11c4.07-9.67 9.51-36.15-5.36-40.22-6.09-1.67-13.86.69-19.13 3.84q-.45.26-.97.21l-2.5-.24q-.65-.07-.47.56.35 1.29-1.01 2.45-20.94 17.76-24.7 45.13c-2.55 18.64 14.59 22.83 25.17 9.17a.81.81 0 011.41.24c5.88 17.81-6.15 36.33-25.23 36.31-23.64-.04-32.51-19.33-26.69-39.83q.12-.44.5-.7.68-.48.57-1.15-.06-.37.03-.74 6.48-25.94 24.82-42.52c11.87-10.74 32.98-22.56 49.49-17.19 32.09 10.45 6.12 65.34-4.47 83.23q-12.1 20.45-17.28 28.63-.35.55-.92.22l-.51-.3a.68.68 0 00-1.01.55q-.05.84.77 1.01a.58.58 0 01.39.85c-3.87 7.02-19.68 34.08-3.13 36.35 16.33 2.24 31.39-26.99 38.11-40.18a1.8 1.75 89.2 01.69-.73c.04-.02 5.51-10.73 5.9-11.6q14.39-31.91 26.11-64.92.19-.52.73-.42l5.15.98a1.06 1.06 0 01.83 1.3c-5.83 24-13.69 48.79-15.58 73.63-.1 1.27-1.27 3.03-.14 4.54q.3.4.29.9c-.13 10.65 9.16 22.61 20.56 14.92 6.02-4.07 10.22-14.19 12.3-21.02 7.05-23.14 11.79-50.82 7.45-73.88q-.98-5.24-1.32-7.31a1 .98 68 01.39-.95l2.71-1.98q.52-.37.7.24c7.21 24.91 4.93 53.21-.42 78.79a.83.81-4.8 01-.52.6l-.99.38a.52.52 0 00-.09.93l.66.4q.4.24.32.71c-3.49 22.07-9.57 49.66-31.64 60.58-6.55 3.24-13.39 2.38-19.02-2.29-8.26-6.85-8.51-23.09-7.32-32.64a.53.53 0 00-1-.3q-13.59 27.11-32.3 50.84-9.81 12.45-23.42 20.48-17.32 10.2-31.62-3.27-1.29-1.22-1.1-3.08.05-.51-.39-.77c-4.68-2.79-3.47-14.82-2.16-19.2 3.72-12.41 9.64-22.37 18.07-34.53q23.51-33.88 44.79-69.2zm22.2-40.17q.09.12.17.24a.18.17 48 00.27.02q1.64-1.85-.44-.29-.01.01 0 .03zm-8.47 28.29q.26.27.52.01.37-.35.26-.9a.52.52 0 00-1.03.02q-.08.53.25.87zm-49.34 11.94q-1.1-.66-1.42.59a.56.56 0 00.93.54l.56-.56a.36.36 0 00-.07-.57zm123.47 4.78c-.84-.66-1.31-.06-1.08.74a.6.59-5.5 00.53.43q.51.03.73-.54a.55.54 29.5 00-.18-.63zm1.31 10.19a.41.41 0 00-.67.31v.6a.51.51 0 001.02.07q.09-.62-.35-.98zm-108.52 17.84l.63.84a.55.48-84.6 00.75-.71q-.27-.4-.67-.77a.48.48 0 00-.71.64zm62.199 5.592a.97.61 108.1 00.88-.733.97.61 108.1 00-.278-1.111.97.61 108.1 00-.88.733.97.61 108.1 00.278 1.111zm-3.069 9.948l-.2-.2a.26.26 0 00-.43.11q-.55 1.82.64.16.02-.04-.01-.07zm39.421 1.926a.96.78 130.9 001.219-.215.96.78 130.9 00.039-1.237.96.78 130.9 00-1.219.215.96.78 130.9 00-.039 1.237zM170.37 425.55a.62.62 0 00-.82.5q-.15 1.04.62 1.19.56.12.78-.41.39-.95-.58-1.28zm37.497 3.731a.97.73 36.8 00-.34-1.166.97.73 36.8 00-1.214.004.97.73 36.8 00.34 1.165.97.73 36.8 001.214-.003zm19.093 3.459q-.15-.8-.85-.8a.67.66 50.3 00-.12 1.32q.56.1.9-.26a.3.29 61.1 00.07-.26zm-10.84 5.13q1.04.37.5-.59-.65-1.14-1.81-1.52-.81-.27-.45.51.53 1.17 1.76 1.6zm-74.25 1.38q-.25-.19-.33.11-.32 1.22.78 1.69a.59.59 0 00.59-1.02l-1.04-.78zm-14.89 2.45q-.04-.14-.1-.34a.37.37 0 00-.7-.02q-.46 1.17.21 1.83a.47.46 35 00.75-.13q.27-.57.01-.99-.11-.16-.17-.35zm76.37 1.04q-1.05-.06-.82 1.13.09.49.57.34.57-.18.75-.74.22-.69-.5-.73zm16.22 3.11l-.99.33q-.49.17-.33.67l.11.36q.22.7.8.25 1.03-.8 2.29-.71.86.06.46-.71l-.82-1.57q-.22-.41-.65-.21-.56.28-.43.75a.69.69 0 01-.44.84zm-89.51 12.09q-.02-.21-.07-.3-.03-.04-.35-.01-1.09.13-1.12 1.18a.58.58 0 001.03.38q.81-1.05.51-1.25zm30.66 3.11q-.29-.91-1.25-.84a.73.73 0 00-.29 1.37q.93.5 1.46-.13a.43.42-34.2 00.08-.4zm-40.41 6.89q-.04-.27-.19-.45-.46-.56-.82.07l-.18.31a.67.67 0 00.04.72c.78 1.04 1.6-.37 1.15-.65zm-10.005 3.47a1.08.56 132.2 001.14-.424 1.08.56 132.2 00.31-1.176 1.08.56 132.2 00-1.14.424 1.08.56 132.2 00-.31 1.176zm16.365-1.15a.46.46 0 00-.76.24l-.15.63a.61.61 0 001.15.38q.32-.73-.24-1.25zm.04 4.24q.79-1.08-.12-1.51a.41.41 0 00-.59.38q.01.43-.06.79a.43.43 0 00.77.34zM297.68 398.21a.44.44 0 00-.78-.4q-4.48 6.76-9.64 12.44c-8.18 9-23.4 14.78-28.14-1.81-4.78-16.72 7.96-42.75 17.77-55.29 3.29-4.21 13.59-12.28 19.69-10.74 16.09 4.08-10.56 48.04-23.41 36.9a.43.42 28.6 00-.69.2c-2.34 8.61-1.35 19.87 11.05 17.51q2.99-.57 7.58-4.91c9.24-8.74 14.38-17.51 20.02-30.26 6.85-15.49 13.67-30.98 20.89-46.2 3.16-6.66 6.43-12.01 10.57-17.56 7.55-10.13 19-9.59 16.74 5.98-3.28 22.55-21.57 56.81-43.13 66.87q-1.03.48-1.33 1.2c-2.61 6.43-10.54 31.14-1.82 33.37 11.35 2.91 23.3-22.22 25.49-30.04 3.42-12.18 12.37-26.82 24.31-32.05q2.47-1.08 5.04-.6 12.36 2.29 8.7 16.04c-1.14 4.27-7.24 10.02-12.19 6.85q-.45-.29-.07-.67.43-.44 1.07-.29.5.12.94-.12 9.3-4.99 6.88-15.04c-1.9-7.87-9.81-.43-12.17 2.14-6.6 7.19-12.79 18.99-9.69 28.61q.15.47.56.74c12.88 8.58 31.26-20.77 36.36-29.4q1.21-2.04 1.84-5.05c1.59-7.55 10.06-22.76 19.23-21.83 12.03 1.23 11.88 18.58 9.66 26.65a.5.5 0 00.88.44q7.72-9.86 16.18-19.27c11.03-12.26 22.92-7.81 22.93 8.89q0 .83.64.3c4.37-3.62 8.92-6.29 14.77-4.89 6.67 1.61 8.15 8 6.75 13.87a.4.4 0 00.69.35c7.17-8.25 12.86-14.75 23.42-18.78 9.87-3.77 16.46 3.41 14.66 12.99-3 15.97-19.09 25.81-20.77 41.81q-.18 1.71-.7 3.34-.14.46.35.49c.52.03.77.05 1.13.48 5.5 6.7 13.16 3.48 17.22-2.65q.99-1.5.97-3.78-.17-15.57 6.97-29.46c3.25-6.34 10.46-16.59 18.63-16.27 15.59.6 3.32 36.56-14.38 34.52q-.45-.05-.42.4c1.14 17 22.05 12.06 19.98-4.4a.92.92 0 01.85-1.03q1.95-.15 1.56 1.34-.18.7.54.78l1.98.22a1.21 1.21 0 01.73.36c10.8 11.17 4.7 26.41-7.84 32.48q-.66.32-1.38.29-.48-.02-.93.18c-9.51 4.13-19.29-2.72-23.38-10.97a.73.73 0 00-1.3 0c-5.55 11.15-24.14 29.72-36.2 13.71-6.33-8.41-1.14-20.35 5.13-27.79 8.73-10.35 23.42-24.36 24.34-38.64.65-9.98-13.61-1.6-16.3.96-4.67 4.43-36.07 37.93-19.53 43.17a1.28 1.27-67.8 01.75 1.8q-5.85 11.56-18.33 13.33c-7.71 1.09-15.36-5.14-12.14-13.3 1.25-3.16 3.83-6.42 6.65-9.13 9.22-8.85 20.27-20.95 20.57-34.06q.03-1.61-1.48-2.48c-2.9-1.65-8.4 2.13-10.33 4.02-6.88 6.77-43.88 63.96-16.45 63.93a.61.61 0 01.57.81c-4.81 13.47-21.92 28.17-37.11 22.43q-9.2-3.48-11.33-14.34c-3.07-15.72 11.55-24.53 22.48-32.86 13.26-10.1 29.9-30.74 27.62-48.52-1.12-8.68-15.33 8.25-16.34 9.12q-2.01 1.75-3.48 3.87c-2.97 4.32-6.31 7.04-10.82 10.94q-1.51 1.3-2.24 3.24c-4.03 10.64-16.96 36.53-31.42 34.17-8.39-1.38-9.84-9.67-9.33-16.92a.47.46 65 00-.84-.31c-7.17 10.07-25.06 29.62-36.35 10.96a.33.33 0 00-.59.05q-7.09 17.93-19.43 32.91c-3.93 4.77-9.43 8.68-15.67 7.12-12.76-3.18-7.42-25.46-4.46-33.46zm54.34-101.87c-4.04 1.13-4.72 3.95-6.45 7.18q-16.29 30.56-28.49 62.89a.27.26-5.2 00.39.32c19.12-11.59 31.56-36.12 37.17-57.06 1.01-3.78 1.93-10.54-1.6-13.14q-.47-.34-1.02-.19zm96.1 30.7l.01.92a.43.43 0 00.72.32q.87-.78 0-1.56a.44.43 21.2 00-.73.32zm-49.04 25.93c1.69 5.62 6.72 8.72 12.46 5.67q.41-.22.57-.66 2.08-5.84 3.14-13.24c.55-3.8.33-17.58-6.53-15.99-8.06 1.87-11.66 17.5-9.64 24.22zm50.61-21.674a.91.65 84.9 00.567-.964.91.65 84.9 00-.728-.848.91.65 84.9 00-.566.964.91.65 84.9 00.728.848zm79.45 36.324c.87 3.33 5.46 3.29 7.57 1.23 4.59-4.48 12.54-15.48 10.04-22.34-2.05-5.62-8.33-1.41-10.3 1.94-2.25 3.84-8.42 14.96-7.31 19.17zm-207.71-22.93l-.18.57a.42.42 0 00.67.45q.46-.36.33-.98a.43.42 47.7 00-.82-.04zm128.82.8q-1.02 2.72.68-.16a.03.03 0 00-.02-.04l-.28-.03q-.28-.04-.38.23zM277.3 367.92l-3.53 6.75a1.52 1.51 17.4 001.15 2.2l3.74.48q.38.05.73-.1c9.91-4.25 16.04-16.84 17.93-27.01.34-1.79-.24-3.77-2.15-4.07-4.57-.71-14.34 15.36-16.73 19.37q-.35.59-.97.3-.47-.22-1.01.01a.53.52 48.9 00-.06.93l.71.43q.43.26.19.71zm116.88-18.98q-.9.77-.07 1.56a.48.48 0 00.8-.28l.11-.82a.51.51 0 00-.84-.46zm-75.255 4.255a.92.72 28.9 00-.457-1.075.92.72 28.9 00-1.153.185.92.72 28.9 00.457 1.075.92.72 28.9 001.153-.185zm-22.005 7.915c.39-.55.5-1.5-.38-1.37a.56.54 7.2 00-.4.3q-.4.87.27 1.2.31.15.51-.13zm89.85 10.62c-.49 4.43 2.6 10.64 7.99 9.28q2.42-.62 3.62-.73.52-.05.89-.41 5.79-5.64 9.01-13.08a.19.19 0 00-.25-.25q-11.82 4.89-16.93-6.33a.5.5 0 00-.9-.03q-2.76 5.4-3.43 11.55zm67.35 11.31l.01.92a.43.43 0 00.72.32q.87-.78 0-1.56a.44.43 21.2 00-.73.32zm-17.356 1.84a.97.64 56.6 000-1.162.97.64 56.6 00-1.068-.458.97.64 56.6 000 1.162.97.64 56.6 001.068.458zm-99.264.54a.51.49 15.9 00.26.45q.75.42 1.23-.26a.72.71-72.3 00-.58-1.13q-.87-.01-.91.94zm2.24 5.48q.44.54.81-.05.68-1.06-.59-1.45a.61.61 0 00-.65.97l.43.53zm208.16 1.87l-.16.72a.56.56 0 00.95.5q.58-.62.15-1.37a.51.51 0 00-.94.15zm-254.71.33q-.81.75-.33 1.86a.84.84 0 001.59-.17q.19-.91-.51-1.66a.52.52 0 00-.75-.03zm-30.3 9.87q.38.14.84-.17a.59.59 0 00-.04-1l-.56-.32q-.62-.36-.63.36 0 .26-.01.52a.62.62 0 00.4.61zm233.33-1.16q-.86.73-.02 1.3a.83.68 83.4 00.81-1.26q-.16-.22-.7-.09a.19.16-68.7 00-.09.05zm-191.45 3.99a.38.37-77.6 00-.48.31l-.05.41a.46.45 88.2 00.54.51l.71-.14a.43.43 0 00.05-.84l-.77-.25zm187.08.56q.25 1.55.97-.02a.25.24 8.6 00-.26-.34q-.13.01-.25-.03-.55-.18-.46.39zm-61.6 1.62q.73.98 1.83.66a.74.73 40.4 00-.12-1.43l-1.18-.15a.58.57 75 00-.53.92zm-125.36 11.744a1.41.96 20.5 00-.984-1.393 1.41.96 20.5 00-1.657.405 1.41.96 20.5 00.985 1.393 1.41.96 20.5 001.657-.405z" />
  <ellipse fill="#fff" transform="rotate(121.3 107.016 255.14)" rx="3.59" ry="3.35" />
  <path
    d="M294.39 296.42l-5.54 22.91a.55.55 0 01-1.09-.14l.47-22.8a.55.55 0 01.54-.54l5.08-.11a.55.55 0 01.54.68zM303 301.74a.55.54-66.1 01.29.77l-8.89 16.39a.49.48-68.6 01-.54.24c-1-.25 4.5-16.59 5.05-18.33a.52.52 0 01.67-.34l3.42 1.27z" />
  <rect x="-19.6" y="-3.49" transform="rotate(27.6 -628.747 227.283)" width="39.2" height="6.98" rx="3.39" />
  <circle fill="#fff" cx="534.33" cy="310.84" r="3.44" />
  <path
    d="M308.98 309.85a.48.48 0 01.02.68l-.17.18a12.31 1.27-46.5 01-9.4 8.06l-.2-.2a12.31 1.27-46.5 017.55-9.8l.17-.18a.48.48 0 01.68-.02l1.35 1.28z" />
  <rect x="-19.32" y="-3.46" transform="rotate(-27.1 985.036 -1132.81)" width="38.64" height="6.92" rx="3.4" />
  <path fill="#fff"
    d="M555.99 324.64l4.56-1.07a.54.54 0 00.35-.28l2.34-4.45a.54.54 0 01.97.04l2.07 4.72a.54.54 0 00.3.29l4.34 1.69a.54.54 0 01.01 1l-4.51 1.87a.54.54 0 00-.31.32l-2.53 7.65a.54.54 0 01-1.04-.04l-2-8a.54.54 0 00-.27-.34l-4.42-2.4a.54.54 0 01.14-1z" />
  <circle cx="37.83" cy="344.47" r="5.98" />
  <circle cx="619.85" cy="351.13" r="5.88" />
  <circle fill="#fff" cx="75.77" cy="363.76" r="3.46" />
  <circle fill="#fff" cx="581.65" cy="381.89" r="3.46" />
  <rect x="-32.8" y="-4.14" transform="rotate(-3.8 6046.554 -331.45)" width="65.6" height="8.28" rx="4" />
  <rect x="-32.2" y="-4.08" transform="rotate(4.5 -4853.6 8113.425)" width="64.4" height="8.16" rx="3.97" />
  <path fill="#fff"
    d="M90.38 411.99l-2.09 6.25a.5.49 47.2 01-.95-.04l-1.66-6.44q-.14-.55-.63-.82l-4-2.18a.55.55 0 01.17-1.02l3.82-.66a1.19 1.17-81.2 00.85-.63l1.85-3.64a.5.5 0 01.82-.11q1.34 1.5 1.4 3.39.02.47.45.67l4.47 1.96a.55.55 0 01-.02 1.02l-3.74 1.47a1.23 1.23 0 00-.74.78z" />
  <rect x="-15.15" y="-3.53" transform="rotate(-18 1363.547 5.944)" width="30.3" height="7.06" rx="3.45" />
  <path
    d="M348.15 425.96q-1.72-.76-1.58-2.47a1.35 1.35 0 01.65-1.06l9.79-5.86a.41.41 0 01.49.64l-9.01 8.69q-.15.14-.34.06zm-.2-2.56q.84 1.89 1.1-.38a.25.24 3.1 00-.25-.27h-.43a.46.46 0 00-.42.65z" />
  <path
    d="M350.41 433.59a.27.27 0 01-.09-.37l.06-.1a19.38 1.82-58.3 0111.73-15.53l.1.07a19.38 1.82-58.3 01-8.63 17.44l-.06.09a.27.27 0 01-.37.09l-2.74-1.69zm3.17-.54l.2-.14a.27.27 0 00.06-.38q-1.22-1.6-.29.52.01.01.03 0z" />
  <path
    d="M358.72 440.91a.73.72-73.7 01-.54-.99l8.72-21.25a.76.65 18.4 01.87-.35c.43.12-3.3 20.71-3.65 22.8a.74.74 0 01-.86.61l-4.54-.82z" />
  <rect x="-14.87" y="-3.44" transform="rotate(18.5 -1013.645 2032.184)" width="29.74" height="6.88" rx="3.36" />
  <circle fill="#fff" cx="518.77" cy="426.76" r="3.42" />
  <circle fill="#fff" cx="83.04" cy="448.6" r="3.49" />
  <circle fill="#fff" cx="283.49" cy="457.56" r="3.44" />
</svg>