<svg xmlns="http://www.w3.org/2000/svg" viewBox="0 0 284.7 314.34"><title>upf-icon</title><path d="M744.88,305a1.53,1.53,0,0,0-1.48-.73,2,2,0,0,0-1,.69,7.52,7.52,0,0,0-1.9,4.1c-.17,1.34,0,2.64-.2,4a10,10,0,0,0-.23,4.44c.45,1.7,2.07,3.22,3.79,2.91a25.71,25.71,0,0,0,1.59-13.74,4.06,4.06,0,0,0-.53-1.65" transform="translate(-524.59 -159.83)"/><path d="M772.7,223.3a23.31,23.31,0,0,0-6.26-5.56,116.63,116.63,0,0,0-74.32-26.6h-.25c-1.67,0-3.35,0-5,.13A117.15,117.15,0,0,0,575,308.31c0,.61,0,1.22,0,1.83a12.5,12.5,0,0,0,.2,5.4A117.16,117.16,0,1,0,772.7,223.3M766,386.85a5.87,5.87,0,0,1-1.56-.21c-3.31-1-4.56-4.93-7-7.33-3.48-3.37-9-3.3-13.78-2.61A87.92,87.92,0,0,0,725,381.49c-4.47,1.69-9.17,4.09-11.1,8.46-2.06,4.64-.4,10,1.28,14.77l-4.15.91a8.37,8.37,0,0,0,5.82,5l-1.46.61a8.62,8.62,0,0,1-.4,2.47c-2.12.46-4.26.88-6.44,1.21a6.11,6.11,0,0,0,.34-1.45c.26-2.56-1.94-4.79-4.32-5.76s-5-1.1-7.5-1.84-5-2.4-5.45-4.93c-.15-.74-.11-1.52-.31-2.25a1.87,1.87,0,0,0-1.53-1.47c-1.14-.05-1.74,1.34-1.82,2.48a10.11,10.11,0,0,0,5.73,9.61c1.7.78,3.64,1.09,5.17,2.17a5.13,5.13,0,0,1,2.31,4.28c-3,.25-6,.41-9,.41a108,108,0,0,1-106-88l.55.37a24.48,24.48,0,0,0,7.23,3.6,9.16,9.16,0,0,0,7.76-1.19c1.54,1.56,1.84,4,1.56,6.16s-1,4.27-1.3,6.45a14.38,14.38,0,0,0,7,13.83c6.79,3.89,16.09,1.79,22.3,6.54,3.66,2.8,5.39,7.35,7.46,11.46a57.85,57.85,0,0,0,16.3,19.7c5.16,4,12,7.13,18.05,4.6-6-5.27-12.21-11-14.12-18.74-1.16-4.66-.58-9.55,0-14.32q.75-6.12,1.49-12.23c.38-3.11.76-6.22,1.09-9.34q.66-6.12,1-12.28a6.38,6.38,0,0,0-.37-3.25c-.9-1.81-3.28-2.34-5.27-2S653,328.75,651,329c-4.08.52-7.92-1.73-11.71-3.32a39.53,39.53,0,0,0-7.28-2.24c-6.85-1.38-13.92-.89-20.89-.4a10.84,10.84,0,0,0-5.14,1.24c-1.5,1-2.46,3-1.62,4.58-2.73-2.68-7.76,2.79-10.82.49-1.22-.91-1.41-2.62-1.88-4.07a9,9,0,0,0-6.82-5.73,107.06,107.06,0,0,1-.59-11.24,109.22,109.22,0,0,1,1-14.9,5.51,5.51,0,0,1,.57-.06c2.74,0,5.27,1.63,7.33,3.56-.19,1.54-.35,3.22.42,4.53s2.88,1.73,3.59.39-.23-2.61-.71-3.89c-1.51-4,1-8.34,3.41-11.81a50.05,50.05,0,0,1,6.69-8.37,15.59,15.59,0,0,1,9.22-4.52,12.4,12.4,0,0,0,2.92-.33,2.68,2.68,0,0,0,1.94-2.13c.19-2-2.32-3.16-2.5-5.12-.16-1.77,1.8-3.06,3.44-2.79s2.95,1.56,4.15,2.79a3.43,3.43,0,0,0,.49,3.71,4.41,4.41,0,0,0,3.39,1.43,4.34,4.34,0,0,0,4.2-3c.47-1.87-1.17-4.14-2.93-3.69,1.12-.46,1-2.34.14-3.25s-2.11-1.22-3.15-1.88c-1.71-1.09-2.73-3.05-3.68-4.92l-3.84-7.53c-1.18-2.32-3-5-5.46-4.48-2.23.49-3.07,3.32-3.92,5.58a19.08,19.08,0,0,1-7.76,9.53,8.85,8.85,0,0,0,.73-6.24c-.22-1.18-.54-2.34-.81-3.5a108.86,108.86,0,0,1,8.71-11.08.46.46,0,0,1,.07.07l.93-1.16c2.22-2.4,4.53-4.71,7-6.9h.08c1.5.13,2.39,2,2.17,3.63a10.63,10.63,0,0,1-2.09,4.23,7.35,7.35,0,0,0-1.62,4.4,4.33,4.33,0,0,0,3,3.76,5.33,5.33,0,0,0,4.69-1,5.61,5.61,0,0,0,2.3-4.05,3.75,3.75,0,0,0-2.32-3.79c1.08-1.15,1.06-3.05.53-4.57s-1.49-2.84-2.14-4.31a11,11,0,0,1-.58-1.79c2.19-1.79,4.45-3.48,6.77-5.1l.14.2a18.64,18.64,0,0,1,2.91,5.2c1.82,5.91-2.44,12-2.53,18.17a9.77,9.77,0,0,0,1.7,6,6.34,6.34,0,0,0,5.42,2.67c0-3.05,1.61-5.88,3.61-8.17s4.4-4.24,6.3-6.62a18.2,18.2,0,0,0,4.14-10.67A13.92,13.92,0,0,0,648.15,216a24.52,24.52,0,0,0-4.59-3.14c-.25-.14-.49-.29-.73-.44a107,107,0,0,1,41.82-11.68,19.17,19.17,0,0,1,1.49,6.95,19.76,19.76,0,0,1-7.48,15.71c-2.57,2-5.65,3.37-7.91,5.71a13,13,0,0,0-.81,16.51c1.26,1.58,2.89,2.85,4.12,4.45s2.05,3.76,1.33,5.65a8.5,8.5,0,0,1-3.13,3.4,7,7,0,0,0-2.93,3.55c-.39,1.51.68,3.46,2.24,3.32l-5.47,4.7,6.36,11.95a13.5,13.5,0,0,0,7.35,24.55c5.28.16,10.42-2.75,15.64-1.93,5.61.88,9.67,5.84,12.2,10.93s4.15,10.7,7.65,15.17,9.8,7.53,14.91,5.05c3-1.44,4.91-4.47,5.8-7.63a35.05,35.05,0,0,0,.87-9.81l-.09-20.16q0-7.71-.08-15.42c0-4.23-.49-9.27-4.17-11.34,2.61-2,5.32-4.16,6.72-7.16s1-7.11-1.78-8.92c-3.12-2-7.22-.28-10.5,1.49a61.66,61.66,0,0,1,16.34-6.58c6.32-1.53,13.92-1.69,18.32,3.11,1.89,2.07,2.93,4.83,5,6.77s5.8,2.63,7.35.29-.16-5.08-1.37-7.46a23,23,0,0,1-.9-18A107.65,107.65,0,0,1,766,386.85" transform="translate(-524.59 -159.83)"/><path d="M690.21,446.46a137.6,137.6,0,0,1-59.78-261.65l-12-25A165.32,165.32,0,0,0,761.56,457.9l-12-25a136.7,136.7,0,0,1-59.35,13.55" transform="translate(-524.59 -159.83)"/></svg>