<svg xmlns="http://www.w3.org/2000/svg" viewBox="0 0 612.57 210.03">
    <title>upf-logo</title>
    <path
        d="M663.9,387a1,1,0,0,0-1-.48,1.29,1.29,0,0,0-.69.46,5,5,0,0,0-1.27,2.74c-.12.89,0,1.76-.14,2.66a6.78,6.78,0,0,0-.15,3,2.46,2.46,0,0,0,2.54,1.94,17.25,17.25,0,0,0,1.06-9.18,2.69,2.69,0,0,0-.36-1.11"
        transform="translate(-516.71 -289.99)" />
    <path
        d="M682.49,332.4a15.6,15.6,0,0,0-4.18-3.72,78,78,0,0,0-49.66-17.77h-.17c-1.11,0-2.23,0-3.36.09a78.27,78.27,0,0,0-74.76,78.19c0,.41,0,.82,0,1.23a8.34,8.34,0,0,0,.14,3.61,78.27,78.27,0,1,0,132-61.63M678,441.67a4.07,4.07,0,0,1-1-.14c-2.21-.65-3.05-3.3-4.7-4.9-2.33-2.25-6-2.2-9.21-1.74a58.53,58.53,0,0,0-12.43,3.2c-3,1.12-6.13,2.73-7.42,5.65-1.38,3.1-.27,6.67.85,9.87l-2.77.61a5.6,5.6,0,0,0,3.89,3.36l-1,.41a5.68,5.68,0,0,1-.26,1.64c-1.42.31-2.85.59-4.3.81a4.46,4.46,0,0,0,.22-1c.17-1.72-1.29-3.2-2.89-3.85s-3.36-.74-5-1.23-3.31-1.61-3.64-3.3c-.09-.49-.07-1-.21-1.5a1.24,1.24,0,0,0-1-1c-.76,0-1.16.9-1.21,1.65a6.77,6.77,0,0,0,3.82,6.43,20.33,20.33,0,0,1,3.46,1.44,3.45,3.45,0,0,1,1.54,2.87c-2,.16-4,.27-6,.27a72.2,72.2,0,0,1-70.84-58.8l.37.25a16.56,16.56,0,0,0,4.83,2.41,6.15,6.15,0,0,0,5.19-.8,4.92,4.92,0,0,1,1,4.12c-.19,1.45-.7,2.85-.87,4.31A9.62,9.62,0,0,0,573,422c4.54,2.59,10.76,1.19,14.91,4.37,2.44,1.86,3.6,4.91,5,7.65a38.63,38.63,0,0,0,10.89,13.16c3.45,2.66,8.05,4.77,12.06,3.08-4-3.52-8.16-7.37-9.44-12.52-.77-3.11-.38-6.39,0-9.57l1-8.17c.26-2.08.51-4.16.73-6.24.29-2.73.53-5.47.7-8.21a4.3,4.3,0,0,0-.24-2.17c-.6-1.2-2.19-1.56-3.53-1.36s-2.58.82-3.91,1c-2.73.34-5.3-1.16-7.83-2.22a25.88,25.88,0,0,0-4.87-1.5c-4.57-.92-9.3-.6-14-.26a7.21,7.21,0,0,0-3.43.82,2.48,2.48,0,0,0-1.08,3.06c-1.83-1.79-5.19,1.87-7.23.33-.82-.61-.94-1.75-1.26-2.72A6,6,0,0,0,557,396.7a71.64,71.64,0,0,1-.4-7.51,72.49,72.49,0,0,1,.71-9.95,2.33,2.33,0,0,1,.37,0,7.38,7.38,0,0,1,4.9,2.38,4.82,4.82,0,0,0,.29,3c.51.88,1.92,1.16,2.39.26s-.15-1.74-.47-2.59c-1-2.68.67-5.58,2.27-7.9a33.9,33.9,0,0,1,4.48-5.59,10.39,10.39,0,0,1,6.16-3,8,8,0,0,0,2-.22,1.76,1.76,0,0,0,1.29-1.42c.13-1.31-1.55-2.11-1.67-3.42a2,2,0,0,1,2.3-1.86,5.48,5.48,0,0,1,2.77,1.85,2.3,2.3,0,0,0,.33,2.48,2.93,2.93,0,0,0,2.26,1,2.88,2.88,0,0,0,2.81-2c.32-1.25-.78-2.77-2-2.46.76-.31.67-1.57.1-2.17a9.92,9.92,0,0,0-2.1-1.26,8,8,0,0,1-2.47-3.29q-1.28-2.52-2.56-5c-.79-1.55-2-3.35-3.65-3s-2,2.21-2.61,3.72a12.74,12.74,0,0,1-5.19,6.37,5.9,5.9,0,0,0,.48-4.17c-.14-.79-.35-1.56-.54-2.34a74.36,74.36,0,0,1,5.83-7.4l0,0,.63-.77c1.48-1.6,3-3.14,4.64-4.61h.06c1,.09,1.6,1.36,1.44,2.42a6.83,6.83,0,0,1-1.39,2.83,4.9,4.9,0,0,0-1.08,2.94,2.9,2.9,0,0,0,2,2.52,3.57,3.57,0,0,0,3.13-.67,3.76,3.76,0,0,0,1.54-2.7,2.49,2.49,0,0,0-1.55-2.53,3.08,3.08,0,0,0,.35-3.06c-.36-1-1-1.89-1.43-2.88a6.9,6.9,0,0,1-.39-1.19c1.46-1.2,3-2.33,4.53-3.41l.09.13a12.67,12.67,0,0,1,2,3.47c1.21,4-1.64,8-1.7,12.15a6.58,6.58,0,0,0,1.14,4,4.19,4.19,0,0,0,3.62,1.79,8.46,8.46,0,0,1,2.41-5.46c1.34-1.54,2.94-2.83,4.21-4.42a12.15,12.15,0,0,0,2.77-7.13,9.3,9.3,0,0,0-2.79-7,16.19,16.19,0,0,0-3.07-2.1l-.48-.29a71.48,71.48,0,0,1,27.94-7.81,13,13,0,0,1,1,4.64,13.2,13.2,0,0,1-5,10.5c-1.72,1.34-3.78,2.25-5.29,3.81a8.67,8.67,0,0,0-.54,11c.84,1.06,1.93,1.9,2.75,3a4,4,0,0,1,.89,3.77,5.71,5.71,0,0,1-2.09,2.28,4.75,4.75,0,0,0-2,2.37c-.25,1,.46,2.31,1.5,2.22L611.26,364l4.25,8a9,9,0,0,0,4.92,16.41c3.52.1,7-1.85,10.44-1.3,3.75.59,6.47,3.91,8.16,7.31s2.77,7.15,5.11,10.14,6.55,5,10,3.37a7.94,7.94,0,0,0,3.88-5.1,23.63,23.63,0,0,0,.58-6.56c0-4.49,0-9-.07-13.47q0-5.15,0-10.3c0-2.83-.32-6.19-2.79-7.57,1.75-1.36,3.56-2.78,4.49-4.79s.67-4.75-1.18-6c-2.08-1.35-4.83-.18-7,1a40.58,40.58,0,0,1,10.92-4.39c4.22-1,9.3-1.14,12.24,2.07,1.26,1.38,2,3.22,3.31,4.52s3.87,1.76,4.91.2-.11-3.4-.91-5a15.3,15.3,0,0,1-.61-12.05A71.93,71.93,0,0,1,678,441.67"
        transform="translate(-516.71 -289.99)" />
    <path
        d="M627.38,481.5a91.94,91.94,0,0,1-40-174.82l-8-16.69A110.46,110.46,0,0,0,675,489.14l-8-16.69a91.45,91.45,0,0,1-39.65,9.05"
        transform="translate(-516.71 -289.99)" />
    <path
        d="M774.5,355.23c0,3,0,4.77-.26,8.27-.68,9.88-7.66,18.73-25.8,18.73s-25.13-8.85-25.81-18.73c-.26-3.5-.26-5.29-.26-8.27v-33H737.7V358c0,1.62,0,2.47.09,3.5.42,6.13,3.92,9.45,10.65,9.45s10.21-3.32,10.64-9.45c.09-1,.09-1.88.09-3.5V322.27H774.5Z"
        transform="translate(-516.71 -289.99)" />
    <path
        d="M827.9,341.35c0,11.58-7.76,17.63-16.27,18.65a77.74,77.74,0,0,1-9.2.43h-6.82V381H780.28V322.27h22.15a77.74,77.74,0,0,1,9.2.43c8.51,1,16.27,7.07,16.27,18.65m-16,0c0-4.43-2.3-6.73-6.22-7.07-1.1-.08-2.47-.08-4.09-.08h-6v14.3h6c1.62,0,3,0,4.09-.08,3.92-.34,6.22-2.64,6.22-7.07"
        transform="translate(-516.71 -289.99)" />
    <polygon
        points="329.49 55.62 355.81 55.62 355.81 67.55 329.49 67.55 329.49 91.06 314.16 91.06 314.16 32.29 358.36 32.29 358.36 44.21 329.49 44.21 329.49 55.62" />
    <polygon points="251.74 159 206.68 159 206.68 100.23 222.01 100.23 222.01 146.06 251.74 146.06 251.74 159" />
    <path
        d="M786,392.52c0,4.6-3.15,7.5-7.92,7.5s-7.92-2.9-7.92-7.5,3.15-7.49,7.92-7.49,7.92,2.89,7.92,7.49m-15.59,11h15.34V449H770.4Z"
        transform="translate(-516.71 -289.99)" />
    <path
        d="M836.84,423.27V449H821.51V425.82c0-1.44,0-3.91-.18-6.21-.34-4.35-2.72-6.9-7.32-6.9s-8,4.51-8,14.82V449H790.67V403.51H806v7.07l4.08-5.62a18.91,18.91,0,0,1,10.22-2.64c9.37,0,14.91,4.42,16.1,12.35a59.82,59.82,0,0,1,.43,8.6"
        transform="translate(-516.71 -289.99)" />
    <polygon
        points="339.88 145.72 339.88 159 324.55 159 324.55 96.4 339.88 96.4 339.88 132.6 355.89 113.52 373.86 113.52 354.61 134.39 374.12 159 355.3 159 343.12 142.14 339.88 145.72" />
    <path
        d="M934.78,426.25c0,14.56-9.54,23.93-24.45,23.93s-24.44-9.37-24.44-23.93,9.54-23.93,24.44-23.93,24.45,9.28,24.45,23.93m-39.35-31.94c0-3.83,2.55-6.22,6.38-6.22s6.39,2.39,6.39,6.22-2.55,6.22-6.39,6.22-6.38-2.39-6.38-6.22m23.67,31.94c0-9.12-3.32-13.54-8.77-13.54s-8.77,4.42-8.77,13.54,3.32,13.54,8.77,13.54,8.77-4.51,8.77-13.54m-6.64-31.94c0-3.83,2.56-6.22,6.39-6.22s6.39,2.39,6.39,6.22-2.56,6.22-6.39,6.22-6.39-2.39-6.39-6.22"
        transform="translate(-516.71 -289.99)" />
    <path
        d="M987.49,425.23c0,16.18-9.88,24.95-21.55,24.95-3.74,0-8.17-.85-10.47-2.21l-3-4.86v22.57H937.16V403.51h15.33v6.64l3.4-5c2.56-1.88,7-2.81,11.59-2.81,12.35,0,20,9.45,20,22.91m-15.67.76c0-8.51-4.26-13.28-9.62-13.28-5.63,0-9.71,3.4-9.71,12.94v2c0,9.12,4.68,12.18,9.28,12.18,6,0,10.05-4.51,10.05-13.8"
        transform="translate(-516.71 -289.99)" />
    <path
        d="M1005.46,392.52c0,4.6-3.15,7.5-7.92,7.5s-7.92-2.9-7.92-7.5,3.15-7.49,7.92-7.49,7.92,2.89,7.92,7.49m-15.59,11h15.33V449H989.87Z"
        transform="translate(-516.71 -289.99)" />
    <path
        d="M1056.3,423.27V449H1041V425.82c0-1.44,0-3.91-.17-6.21-.34-4.35-2.72-6.9-7.32-6.9s-8,4.51-8,14.82V449h-15.33V403.51h15.33v7.07l4.09-5.62a18.91,18.91,0,0,1,10.22-2.64c9.37,0,14.91,4.42,16.1,12.35a60,60,0,0,1,.42,8.6"
        transform="translate(-516.71 -289.99)" />
    <path
        d="M1108.51,437.41c0,2.81,0,6.3-.09,8.77-.51,14.9-10.73,21.55-26.14,21.55-13.63,0-21.89-5.54-23-15.93l-.09-.85H1074l.08.85c.34,3,3.83,4.68,8.6,4.68,5.71,0,9.88-2.46,10.31-8.6.08-1.36.17-3.49.17-6v-1.28l-3.41,5q-3.82,2.81-10.73,2.81c-12.35,0-20.87-8.43-20.87-21.89,0-16.18,9.88-24.27,21.55-24.27,3.75,0,8.18.85,10.48,2.21l3,4.85v-5.87h15.33Zm-15.33-12.27v-.26c0-9.11-4.69-12.17-9.29-12.17-6,0-10,3.49-10,12.77,0,8.52,4.25,12.61,9.62,12.61,5.62,0,9.71-3.41,9.71-12.95"
        transform="translate(-516.71 -289.99)" />
    <path d="M1129.29,441.67a8.52,8.52,0,1,1-8.52-8.52,8.13,8.13,0,0,1,8.52,8.52"
        transform="translate(-516.71 -289.99)" />
</svg>