<svg viewBox="0 0 702 702" xmlns="http://www.w3.org/2000/svg">
    <path
        d="m335.41 675.68a115.93 115.93 0 0 1-17.18-0.48c-21.45 22.45-23.6 27.14-30.75 23.95-34.75-15.55-39.34-15.65-38.71-23.56l2.39-30.37a116.51 116.51 0 0 1-11.83-12.49c-31.07 0.72-35.86 2.51-38.65-4.8-13.59-35.55-16.77-38.89-10.73-44l23.17-19.79a118.75 118.75 0 0 1 0.49-17.18c-22.41-21.42-27.13-23.6-23.94-30.74 15.61-34.92 15.78-39.4 23.55-38.73l30.39 2.4a116.2 116.2 0 0 1 12.49-11.89c-0.73-31-2.53-35.86 4.79-38.65l34.46-13.17c7.3-2.78 9.23 2.05 29.36 25.61a116.22 116.22 0 0 1 17.19 0.49l21.1-22.03c5.46-5.73 8.55-2.42 43.37 13.15 7.14 3.19 5.08 8 2.63 38.88a115.38 115.38 0 0 1 11.82 12.49l30.46-0.72c8-0.15 8 5 21.38 40 2.79 7.31-2.05 9.23-25.62 29.36a114.83 114.83 0 0 1-0.49 17.19l22 21c5.73 5.47 2.42 8.56-13.14 43.39-3.2 7.14-7.88 5.09-38.88 2.64a115.33 115.33 0 0 1-12.53 11.83l0.69 30.48c0.18 7.89-4.33 7.74-40 21.35-7.24 2.79-9.17-2.05-29.28-25.61zm28.88 7.45 23.16-8.85c-0.69-30.57-1.79-32.33 2.77-35.75 27.93-21 4.32-19.82 52-16l10.11-22.66c-22-21-24.17-21.52-23.35-27.24 5-34.59-10.93-17 25.46-48.1l-8.86-23.17c-31 0.73-32.3 1.83-35.75-2.73-21-27.88-19.81-4.41-16-52l-22.63-10.12c-21 22-21.55 24.16-27.24 23.35-34.64-4.89-17.09 10.87-48.11-25.43l-23.17 8.84c0.71 30 1.9 32.28-2.74 35.76-28.21 21.17-4.14 19.81-52 16l-10.12 22.64c22.06 21.08 24.13 21.56 23.34 27.23-4.86 34.56 10.79 17.17-25.45 48.11l8.85 23.18c30.63-0.71 32.28-1.84 35.73 2.73 21.13 27.94 19.81 4.5 16.07 52l22.64 10.08c33.22-34.79 14.68-19.75 49.45-22.72 5.73-0.45 6.16 1.78 25.84 24.85zm-58.24-70.7c-47.45-21.22-45.93-89.93 3-108.61a58.75 58.75 0 0 1 75.95 33.94c18.74 49.12-31.56 95.86-78.95 74.67zm9.14-92.61c-34.67 13.23-35.79 61.92-2.14 77a41.3 41.3 0 0 0 31.87 0.88c34.8-13.28 35.7-62 2.14-77a41.38 41.38 0 0 0-31.87-0.88z" />
    <path
        d="m544.2 471.36a76.62 76.62 0 0 1-8.3-0.23c-12 12.62-15.06 17.93-22 14.81-31-13.85-27.25-7.66-25-35.85a77.49 77.49 0 0 1-5.71-6c-17.32 0.4-23.32 2-26-5.09-12.3-32.19-13.47-25 7.65-43.06a79.25 79.25 0 0 1 0.23-8.3c-12.13-11.6-18-15-14.8-22 9.33-20.88 10.28-27.09 18.05-26.44l17.8 1.41a75.68 75.68 0 0 1 6-5.72c-0.66-28.18-4.81-22.25 27-34.39 7.2-2.76 10.28 3.27 21.16 16a76.7 76.7 0 0 1 8.3 0.24c12.06-12.63 15.08-17.94 22-14.82 31.45 14.06 27.22 8.19 25 35.85a79.19 79.19 0 0 1 5.7 6c16.94-0.4 23.3-2.11 26 5.09 12.3 32.18 13.48 25-7.64 43.06a76.7 76.7 0 0 1-0.24 8.3c12.64 12.06 17.92 15.06 14.82 22-13.71 30.69-7.33 27.29-35.85 25a79.59 79.59 0 0 1-6 5.72c0.62 27.59 5.25 22.08-27 34.4-7.25 2.8-10.37-3.29-21.17-15.98zm20.69-2.15 10.59-4c-0.36-16.06-1.48-19.67 3-23.08 18-13.54 3.76-13.28 33-11l4.63-10.36c-11.89-11.35-15-13-14.18-18.49 3.18-22.13-6.71-12 15.56-31l-4-10.61c-16.22 0.39-19.65 1.51-23.07-3-13.57-18-13.29-3.77-11-33l-10.37-4.67c-11.08 11.61-12.85 15-18.48 14.18-22.31-3.14-12.06 6.69-31.07-15.54l-10.59 4c0.39 16.66 1.4 19.75-3.05 23.08-17.51 13.14-3.42 13.3-32.95 11l-4.63 10.36c11.7 11.17 15 12.89 14.17 18.46-3.15 22.34 6.64 12.12-15.56 31.07l4.11 10.6c16.85-0.39 19.71-1.39 23.05 3 13.52 17.89 13.29 3.92 11 33l10.36 4.63c20.31-21.27 10.58-12 31.88-13.79 5.55-0.49 7.08 2.83 17.6 15.16zm-39.22-38.35c-32.92-14.73-31.37-62 2.09-74.76a40.47 40.47 0 0 1 28.88 75.61 40.2 40.2 0 0 1-30.97-0.85zm-5.27-28.62a23.3 23.3 0 0 0 30.12 13.47c19.49-7.43 20-34.7 1.19-43.11s-38.71 10.15-31.31 29.64z" />
    <path d="m108.63 202.3h-34.26c-11.32 0-11.33-17.14 0-17.14h34.26c11.37 0 11.37 17.14 0 17.14z" />
    <path
        d="m173.68 235.82c-82.51-36.67-82.18-34.42-82.18-42.09s-0.33-5.42 82.18-42.09c10.35-4.59 17.32 11.05 7 15.65l-59.48 26.44 59.48 26.44c10.32 4.59 3.32 20.25-7 15.65z" />
    <path
        d="m236.42 236.56h-59.26a8.57 8.57 0 0 1-8.57-8.57v-68.52a8.57 8.57 0 0 1 8.57-8.57h64.06c11.31 0 11.33 17.13 0 17.13h-55.49v51.4h50.69a8.57 8.57 0 1 1 0 17.13z" />
    <path
        d="M536.93,236.56h-214c-11.32,0-11.33-17.13,0-17.13H528.36V168H464.12c-11.32,0-11.34-17.13,0-17.13h72.81a8.57,8.57,0,0,1,8.56,8.57V228A8.57,8.57,0,0,1,536.93,236.56Z" />
    <path
        d="M288,186.24a8.57,8.57,0,0,1,8.56-8.57,15.12,15.12,0,0,0,15.11-15.1V131c0-20-30.21-20-30.21,0v16.6c0,11.31-17.13,11.33-17.13,0V131a32.24,32.24,0,1,1,64.47,0v31.56C328.76,193.53,288,203.86,288,186.24Z" />
    <path
        d="m343.87 210.59a32.28 32.28 0 0 1-32.24-32.24v-49a32.24 32.24 0 1 1 64.47 0v49a32.28 32.28 0 0 1-32.23 32.24zm-15.11-81.21v49c0 20 30.21 20 30.21 0v-49c0.03-19.96-30.21-19.97-30.21 0z" />
    <path
        d="m391.21 212.21a32.27 32.27 0 0 1-32.21-32.21v-49a32.24 32.24 0 0 1 64.48 0v49a32.27 32.27 0 0 1-32.27 32.21zm-15.11-81.21v49c0 20 30.22 20 30.22 0v-49c0-20-30.22-20-30.22 0z" />
    <path
        d="m438.55 205.48a32.27 32.27 0 0 1-32.23-32.23v-23a32.24 32.24 0 1 1 64.47 0v23a32.27 32.27 0 0 1-32.24 32.23zm-15.1-55.22v23c0 20 30.21 20 30.21 0v-23c0-19.96-30.21-19.96-30.21 0z" />
    <path
        d="M301.36,372.86c-9,0-57.37-44.89-68.4-110.65-4.8-28.66,2.35-33,1.39-70.82-.7-28.08-5.53-40.42,5.45-48.53,17.43-12.88,73,9,64.43,71.83A108.79,108.79,0,0,1,379.07,271a8.56,8.56,0,0,1-3.62,11.56c-13.6,7.12-10.37-16.77-42.55-37.91a92.41,92.41,0,0,0-39.7-14.44,8.56,8.56,0,0,1-7.3-10.59c13.08-52.06-31-66.68-35.92-63-.55,1.3,1.46,32.87,1.5,34.32,1,39.35-5.91,42.84-1.63,68.42,5.9,35.17,25,72.48,56.9,98.26a8.57,8.57,0,0,1-5.39,15.23Z" />
    <path
        d="m254.25 409.73v-45.44a8.57 8.57 0 0 1 8.57-8.56h160.61c11.32 0 11.33 17.13 0 17.13h-152v36.87c-0.05 11.32-17.18 11.33-17.18 0z" />
    <path
        d="m571.19 236.56h-34.26a8.57 8.57 0 0 1-8.57-8.57v-68.52a8.57 8.57 0 0 1 8.57-8.57h34.26a25.73 25.73 0 0 1 25.7 25.7v34.26a25.73 25.73 0 0 1-25.7 25.7zm-25.7-17.13c40.75 0 34.26 5.84 34.26-42.83a8.57 8.57 0 0 0-8.56-8.57h-25.7z" />
    <path d="m348.48 27.77v-19.28c0-11.31 17.13-11.33 17.13 0v19.28c0 11.31-17.13 11.33-17.13 0z" />
    <path d="m260.75 55.86-9.63-16.69c-5.66-9.8 9.16-18.38 14.83-8.57l9.64 16.7a8.57 8.57 0 1 1-14.84 8.56z" />
    <path d="m198.83 124.06-16.69-9.64c-9.8-5.66-1.25-20.51 8.57-14.84l16.69 9.64a8.57 8.57 0 0 1-8.57 14.84z" />
    <path d="m506.69 109.22 16.69-9.64c9.8-5.66 18.38 9.17 8.57 14.84l-16.69 9.64c-9.8 5.66-18.38-9.18-8.57-14.84z" />
    <path d="m438.5 47.3 9.63-16.7c5.65-9.8 20.5-1.24 14.84 8.57l-9.64 16.69c-5.67 9.82-20.49 1.23-14.83-8.56z" />
    <path d="m466.26 291.52v-64.24c0-11.32 17.13-11.33 17.13 0v64.24c0 11.32-17.13 11.33-17.13 0z" />
    <path d="m563.34 557.76v-51.38c0-11.32 17.13-11.33 17.13 0v51.38c0 11.32-17.13 11.34-17.13 0z" />
    <path d="m518.36 622h-40.68c-11.32 0-11.33-17.13 0-17.13h40.68a8.57 8.57 0 0 1 0 17.13z" />
    <path
        d="m569.76 647.72a38.55 38.55 0 1 1 38.55-38.55 38.59 38.59 0 0 1-38.55 38.55zm0-60a21.42 21.42 0 1 0 21.42 21.41 21.43 21.43 0 0 0-21.42-21.37z" />
    <path
        d="m145.82 618.74c-21.85-79.4 4.19-168.17 75.84-222 9.06-6.79 19.36 6.89 10.29 13.7-65.32 49.07-89.81 130.35-69.61 203.75a8.57 8.57 0 0 1-16.52 4.55z" />
</svg>