<svg xmlns="http://www.w3.org/2000/svg" viewBox="0 0 2560 2560">
    <path d="M2259.6,1953.8a301.24,301.24,0,0,0-49.2-158.8l-101.2,88.2A300.57,300.57,0,0,0,2259.6,1953.8Z" />
    <circle cx="600" cy="1783.8" r="40" />
    <path
        d="M1764.8,739.6a39.94,39.94,0,0,1-69.6-39.2l33.4-59.6c-2.8-.2-5.6-.8-8.6-.8a101.19,101.19,0,1,0,78.8,39.2Z" />
    <path
        d="M2200,820a100,100,0,0,0,100-100c0-52-40.2-94.4-91-99l20,90.4a39.85,39.85,0,0,1-30.4,47.6,31.59,31.59,0,0,1-8.6,1,39.73,39.73,0,0,1-39-31.4l-18.2-82.2c-20,18.4-32.8,44.4-32.8,73.6A100,100,0,0,0,2200,820Z" />
    <path
        d="M2560,600c0-301.24-246.77-571.7-547.52-597.75Q1986.3,0,1960,0c-303.8,0-555.2,226.8-594.6,520H1194.6C1155.2,226.8,903.8,0,600,0,280.53,0,0,280.59,0,600c0,310.6,237.2,566.8,540,597v166a574.09,574.09,0,0,0-80.2,13.6c-.2,0-.4.2-.6.2a587.23,587.23,0,0,0-105.6,36,40.24,40.24,0,0,0-5.8,3.4,601.85,601.85,0,0,0-206.6,158,41.58,41.58,0,0,0-4.2,4.2,589.63,589.63,0,0,0-36.4,49.2c-.6.8-1.2,1.8-2,2.8-.2.2-.2.6-.4,1A600.63,600.63,0,0,0,0,1960c0,330.8,269.2,600,600,600,304.4,0,556.6-228,594.8-522.2h170.4C1403.4,2332,1655.6,2560,1960,2560c330.8,0,600-269.2,600-600,0-123.45-39.7-241.35-107.54-339.41-90.58-130.92-231.31-226.46-394.66-252.59V1192C2342.2,1145,2560,897.6,2560,600ZM240,600c0-198.4,161.6-360,360-360S960,401.6,960,600a40,40,0,0,1-80,0c0-154.4-125.6-280-280-280S320,445.6,320,600,445.6,880,600,880a40,40,0,0,1,0,80C401.6,960,240,798.4,240,600Zm400-.8A41.68,41.68,0,0,1,599.2,640a36.81,36.81,0,0,1-8.2-.8H478.4a40,40,0,1,1,0-80h80.8V478.4a40,40,0,1,1,80,0V591A36.81,36.81,0,0,1,640,599.2Zm-40,924.6c143.4,0,260,116.6,260,260s-116.6,260-260,260-260-116.6-260-260S456.6,1523.8,600,1523.8Zm346.2,460C881.8,2095.4,767,2168.6,640,2181.6v174.6a40,40,0,0,1-80,0V2181.6c-127-13-241.8-86.2-306.2-197.8a40,40,0,1,1,69.2-40c57,98.6,163,160,277,160s220-61.4,277-160a40,40,0,1,1,69.2,40Zm413.8-26H1200c-1.2-323.2-259.2-586.8-580-597.2V1199.4c321.6-10.6,580-275.2,580-599.4h160c0,330.8,269.2,600,600,600,6,0,11.8-.2,17.8-.4v160.8c-6-.2-11.8-.4-17.8-.4C1630,1360,1361.2,1628,1360,1957.8Zm886.8-247.4A380,380,0,0,1,1960.4,2340c-3.2,0-6.4,0-9.6-.2h-1.2a7.5,7.5,0,0,1-2-.2H1946a379.9,379.9,0,0,1,24.4-759.4c1,0,1.8.2,2.8.2h.8A381.46,381.46,0,0,1,2246.8,1710.4ZM2020,720a180.19,180.19,0,0,1,94-158.2l-7.6-34.8-251,51.4-15.6,27.8A178.94,178.94,0,0,1,1900,740c0,99.2-80.8,180-180,180s-180-80.8-180-180,80.8-180,180-180a178.78,178.78,0,0,1,50,7.2l24.6-43.8a41.44,41.44,0,0,1,5.4-7.4V454.4a39.35,39.35,0,0,1-20-34.4,40.12,40.12,0,0,1,40-40h40a40.12,40.12,0,0,1,40,40,39.35,39.35,0,0,1-20,34.4v37.4l220-45V380h-40a40,40,0,0,1,0-80h160a40,40,0,0,1,0,80h-40V489.6l11.2,50.8c3,0,5.8-.4,8.8-.4,99.2,0,180,80.8,180,180s-80.8,180-180,180S2020,819.2,2020,720Z" />
    <path d="M1924.2,2044.2a380.4,380.4,0,0,1,68.4,213.8,298,298,0,0,0,132.2-47.6l-168.8-194Z" />
    <path d="M2157.8,1734.8a300.87,300.87,0,0,0-150.4-70.8,300.9,300.9,0,0,0,49.4,158.8Z" />
    <path d="M1795.2,1709.6l168.8,194,31.8-27.8a378.87,378.87,0,0,1-68.4-213.8A295.57,295.57,0,0,0,1795.2,1709.6Z" />
    <path d="M1903.6,1956l-168.8-194a299.33,299.33,0,0,0-65.4,124.6,381.2,381.2,0,0,1,202.4,97.2Z" />
    <path d="M1762.2,2185.2a300.87,300.87,0,0,0,150.4,70.8,300.9,300.9,0,0,0-49.4-158.8Z" />
    <path d="M2016.4,1964l168.8,194a299.33,299.33,0,0,0,65.4-124.6,381.2,381.2,0,0,1-202.4-97.2Z" />
    <path d="M1660.4,1966.2a301.24,301.24,0,0,0,49.2,158.8l101.2-88.2A300.57,300.57,0,0,0,1660.4,1966.2Z" />
    <path
        d="M600,1963.8c99.2,0,180-80.8,180-180,0-99.4-80.8-180-180-180s-180,80.6-180,180C420,1883,500.8,1963.8,600,1963.8Zm0-300a120,120,0,1,1-120,120A120.1,120.1,0,0,1,600,1663.8Z" />
</svg>