<svg viewBox="0 0 24 24" xmlns="http://www.w3.org/2000/svg">
  <path transform="translate(0)"
    d="m18.5 24a5.5 5.5 0 1 1 5.5-5.5 5.51 5.51 0 0 1-5.5 5.5zm0-10a4.5 4.5 0 1 0 4.5 4.5 4.51 4.51 0 0 0-4.5-4.5z" />
  <path transform="translate(0)"
    d="M18.5,22a.5.5,0,0,1-.35-.85.49.49,0,0,1,.54-.11.36.36,0,0,1,.16.11.48.48,0,0,1,0,.7.36.36,0,0,1-.16.11A.43.43,0,0,1,18.5,22Z" />
  <path transform="translate(0)"
    d="M18.5,20h0a.5.5,0,0,1-.5-.5v-1a.5.5,0,0,1,.4-.49l.11,0c1-.19,1.49-.5,1.49-1s-.69-1-1.5-1S17,16.42,17,17a.51.51,0,0,1-.54.45.5.5,0,0,1-.46-.54A2.31,2.31,0,0,1,18.5,15,2.3,2.3,0,0,1,21,17c0,.95-.67,1.6-2,1.91v.59A.5.5,0,0,1,18.5,20Z" />
  <path transform="translate(0)"
    d="M17.3,12.11a.46.46,0,0,1-.36-.16.5.5,0,0,1,0-.71,4.18,4.18,0,0,0,1.29-2.65.5.5,0,0,1,.5-.46l.13,0A.21.21,0,0,0,19,7.92l.19-1.48a.22.22,0,0,0-.06-.18A.23.23,0,0,0,19,6.18a.5.5,0,0,1-.49-.53l.09-1.85a.52.52,0,0,1,.14-.33l.37-.37c.21-.22.38-.55-.06-1.22A2.32,2.32,0,0,0,16.94,1a4.6,4.6,0,0,0-1.54.22A.5.5,0,0,1,14.77.9a.5.5,0,0,1,.31-.63A5.7,5.7,0,0,1,16.94,0a3.23,3.23,0,0,1,2.91,1.33A1.83,1.83,0,0,1,19.8,3.8L19.56,4,19.5,5.29a1.2,1.2,0,0,1,.4.31,1.26,1.26,0,0,1,.3,1L20,8.05a1.22,1.22,0,0,1-.71,1l-.1,0A5.27,5.27,0,0,1,17.64,12,.49.49,0,0,1,17.3,12.11Z" />
  <path transform="translate(0)"
    d="M.5,18a.51.51,0,0,1-.5-.5,4.29,4.29,0,0,1,3.25-4.16L6,12.65l.22-.88A5.36,5.36,0,0,1,4.89,9.09,1.25,1.25,0,0,1,4,8L3.81,6.57a1.25,1.25,0,0,1,.29-1,1.32,1.32,0,0,1,.46-.32c0-.46-.12-1.13-.12-1.44,0-1.4.42-3,3.66-3.09A5,5,0,0,1,10.94,0a3.23,3.23,0,0,1,2.91,1.33,1.83,1.83,0,0,1,0,2.47L13.56,4,13.5,5.29a1.2,1.2,0,0,1,.4.31,1.25,1.25,0,0,1,.3,1L14,8a1.25,1.25,0,0,1-.81,1,5.35,5.35,0,0,1-1.4,2.78l.2.81,1.67.42a.5.5,0,0,1-.24,1l-2-.49a.52.52,0,0,1-.37-.36l-.34-1.39a.5.5,0,0,1,.15-.5,4.15,4.15,0,0,0,1.34-2.71.5.5,0,0,1,.5-.46A.25.25,0,0,0,13,7.92l.18-1.48a.22.22,0,0,0,0-.18A.25.25,0,0,0,13,6.18.48.48,0,0,1,12.61,6a.5.5,0,0,1-.13-.37l.09-1.85a.52.52,0,0,1,.14-.33l.37-.37c.21-.22.38-.55-.06-1.22A2.32,2.32,0,0,0,10.94,1a3.93,3.93,0,0,0-2.39.65.47.47,0,0,1-.28.09c-2.83,0-2.83,1.17-2.83,2.09,0,.35.12,1.4.17,1.78A.5.5,0,0,1,5.48,6a.48.48,0,0,1-.37.17.32.32,0,0,0-.26.09.2.2,0,0,0,0,.18L5,7.92a.25.25,0,0,0,.24.21h.12a.5.5,0,0,1,.5.46,4.17,4.17,0,0,0,1.28,2.66.49.49,0,0,1,.14.49L6.9,13.18a.52.52,0,0,1-.36.37l-3,.76A3.28,3.28,0,0,0,1,17.5.5.5,0,0,1,.5,18Z" />
</svg>