<svg version="1.1" xmlns="http://www.w3.org/2000/svg" viewBox="0 0 64 64">
    <g stroke-width="1">
        <path
            d="m55.79 51.04-.705-2.82 1.515-2.02c.903-1.203 1.4-2.694 1.4-4.2v-2c0-3.859-3.141-7-7-7s-7 3.141-7 7v2c0 1.506.497 2.997 1.4 4.199l1.514 2.02-.71 2.841c-1.137.113-2.223.466-3.211 1.04-.318-.186-.649-.348-.994-.489v-11.611c0-3.859-3.141-7-7-7-1.692 0-3.245.604-4.456 1.606-1.33-5.151-5.47-9.252-10.726-10.459l-.133-.532c1.364-.638 2.316-2.013 2.316-3.615 2.206 0 4-1.794 4-4v-5c0-5.514-4.486-10-10-10s-10 4.486-10 10v5c0 2.206 1.794 4 4 4 0 1.602.952 2.977 2.316 3.615l-.133.532c-6.518 1.489-11.183 7.29-11.183 14.034v.819h2v-.819c0-5.596 3.732-10.436 9.026-11.927.133 2.085 1.855 3.746 3.974 3.746 2.118 0 3.838-1.659 3.974-3.743 4.725 1.342 8.284 5.423 8.916 10.337-.565 1.01-.89 2.17-.89 3.406v11.61c-.346.141-.677.304-.995.49-.986-.575-2.072-.928-3.209-1.04l-.71-2.84 1.514-2.02c.903-1.203 1.4-2.694 1.4-4.2v-2c0-3.859-3.141-7-7-7s-7 3.141-7 7v2c0 1.506.497 2.997 1.4 4.199l1.514 2.02-.704 2.821c-4.042.398-7.21 3.816-7.21 7.96v4h56v-4c0-4.144-3.168-7.562-7.21-7.96zm-33.79-33.04v-4c1.103 0 2 .897 2 2s-.897 2-2 2zm-14-2c0-1.103.897-2 2-2v4c-1.103 0-2-.897-2-2zm3-4h-1c-.732 0-1.409.212-2 .556v-1.556c0-4.411 3.589-8 8-8s8 3.589 8 8v1.556c-.591-.344-1.268-.556-2-.556h-1-.252c-1.505 0-2.92-.586-4.041-1.707l-.764-.65-.707.707c-1.064 1.064-2.479 1.65-3.984 1.65zm1 1.964c1.453-.141 2.822-.693 3.995-1.622 1.153.92 2.534 1.48 4.005 1.622v6.036c0 1.103-.897 2-2 2h-4c-1.103 0-2-.897-2-2zm4 14.036c-1.103 0-2-.897-2-2v-.878l.28-1.122h3.44l.28 1.122v.878c0 1.103-.897 2-2 2zm37.22 21 .5 2h-5.44l.5-2zm-7.22-9c0-2.757 2.243-5 5-5s5 2.243 5 5v2c0 1.075-.355 2.141-1 3l-1.5 2h-5l-1.5-2.001c-.645-.858-1-1.924-1-2.999zm-11-5c2.757 0 5 2.243 5 5v14c0 .552-.448 1-1 1h-8c-.552 0-1-.448-1-1v-14c0-2.757 2.243-5 5-5zm-4 22h8c1.654 0 3-1.346 3-3v-.174c1.81 1.058 3 3.018 3 5.174v2h-2v-4h-2v4h-12v-4h-2v4h-2v-2c0-2.156 1.19-4.115 3-5.173v.173c0 1.654 1.346 3 3 3zm-9.78-8 .5 2h-5.44l.5-2zm-7.22-9c0-2.757 2.243-5 5-5s5 2.243 5 5v2c0 1.075-.355 2.141-1 3l-1.5 2h-5l-1.5-2.001c-.645-.858-1-1.924-1-2.999zm-5 19c0-3.309 2.691-6 6-6h8c.788 0 1.55.167 2.264.459-1.405 1.463-2.264 3.432-2.264 5.541v2h-10v-4h-2v4h-2zm52 2h-2v-4h-2v4h-10v-2c0-2.109-.859-4.078-2.263-5.54.714-.293 1.476-.46 2.263-.46h8c3.309 0 6 2.691 6 6z" />
        <path
            d="m30.596 22.826c.297 2.38 2.33 4.174 4.729 4.174h.675v1.465c0 1.398 1.138 2.535 2.535 2.535.502 0 .988-.147 1.406-.426l5.362-3.574h11.373c2.398 0 4.432-1.794 4.729-4.174l1.559-12.468c.023-.197.036-.394.036-.592 0-2.628-2.138-4.766-4.766-4.766h-24.468c-2.628 0-4.766 2.138-4.766 4.766 0 .198.013.396.037.591zm3.17-15.826h24.469c1.525 0 2.765 1.241 2.765 2.766 0 .114-.007.229-.021.343l-1.559 12.469c-.173 1.38-1.353 2.422-2.744 2.422h-11.979l-5.865 3.91c-.332.222-.832-.044-.832-.445v-3.465h-2.676c-1.392 0-2.571-1.042-2.744-2.422l-1.559-12.47c-.014-.114-.021-.228-.021-.342 0-1.525 1.24-2.766 2.766-2.766z" />
        <path d="m57 9h-6v14h6zm-2 12h-2v-10h2z" />
        <path d="m49 11h-6v12h6zm-2 10h-2v-8h2z" />
        <path d="m41 13h-6v10h6zm-2 8h-2v-6h2z" />
    </g>
</svg>