<svg xmlns="http://www.w3.org/2000/svg" viewBox="0 0 144 144" class="larger">
    <path
        d="m28.963 50.673-1.443-2.629c-3.094 1.697-6.117 3.604-8.99 5.664l1.748 2.438c2.775-1.991 5.697-3.833 8.685-5.473z" />
    <path
        d="M2.898,68.06l2.279,1.949c2.221-2.598,4.619-5.082,7.131-7.387l-2.027-2.211C7.68,62.798,5.197,65.37,2.898,68.06z" />
    <path
        d="m134.64 65.604-2.209 2.029c2.305 2.508 4.484 5.188 6.479 7.965l2.438-1.75c-2.065-2.874-4.323-5.648-6.708-8.244z" />
    <path
        d="m116.84 54.319c2.844 1.885 5.604 3.967 8.199 6.186l1.949-2.281c-2.689-2.299-5.547-4.453-8.492-6.404l-1.656 2.499z" />
    <path
        d="m46.652 43.413v7.582c0 1.299 1.057 2.355 2.357 2.355l4.375 2e-3 4.324-6.557 11.113 0.078-5.73 19.756v0.213c0 1.453 1.182 2.635 2.635 2.635h6.619l11.938-22.139 10.094 0.334c2.035 0 3.869-0.822 5.172-2.131 2.861 1.063 5.684 2.275 8.4 3.633l1.342-2.684c-2.631-1.314-5.355-2.498-8.117-3.545 0.229-0.668 0.354-1.377 0.354-2.115 2e-3 -1.842-0.752-3.57-2.123-4.865-1.346-1.271-3.129-1.973-5.072-1.973h-2e-3l-10.125 0.336-11.858-21.991-6.625-2e-3c-1.451 6e-3 -2.631 1.188-2.631 2.639v0.213l5.688 19.609-11.146 0.096-4.25-6.428h-4.374c-1.299 0-2.357 1.057-2.357 2.355v9.477c-3.227 0.885-6.432 1.957-9.533 3.203l1.117 2.783c2.742-1.101 5.568-2.056 8.415-2.869zm3-11.949h2.117l4.26 6.441 16.735-0.145-6.504-22.425 4.297 2e-3 11.891 22.053 11.934-0.398c1.123 0 2.176 0.41 2.963 1.154 0.764 0.723 1.186 1.676 1.184 2.686 0 2.117-1.861 3.842-4.1 3.842l-11.902-0.395-11.972 22.199h-4.295l6.549-22.576-16.708-0.117-4.332 6.568-2.117-2e-3v-18.887z" />
    <path
        d="m121.78 121.11-0.025-2e-3c-0.645-8.291-3.287-16.355-7.84-23.596-7.4-11.766-18.939-19.945-32.492-23.033-3.818-0.869-7.721-1.311-11.602-1.311-24.41 0-45.252 16.648-50.686 40.486-1.496 6.564-1.697 13.219-0.68 19.676h3.049c-0.939-5.611-0.902-11.387 0.174-17.115 5.279 1.166 10.26 3.064 10.807 4.15-0.063 0.59-0.156 1.201-0.252 1.814-0.428 2.781-0.961 6.242 1.727 8.197 2.189 1.588 4.217-0.156 5.309-1.094 0.297-0.254 0.762-0.654 1.039-0.807 0.691 0.717 1.693 1.457 2.752 2.236 0.854 0.631 2.281 1.684 3.186 2.617h3.566c-0.744-1.908-2.955-3.543-4.971-5.031-0.975-0.719-1.895-1.396-2.406-1.938-1.961-2.068-4.096-0.236-5.121 0.646-1.01 0.867-1.383 1.096-1.59 0.941-1.123-0.816-0.938-2.635-0.525-5.313 0.107-0.695 0.213-1.389 0.281-2.059 0.352-3.572-6.756-5.916-13.158-7.295 4.75-18.986 19.938-32.936 38.646-36.318-1.33 1.889-2.539 4.594-3.006 8.814-0.15 1.361-0.342 2.574-0.512 3.645-0.664 4.189-1.188 7.5 3.504 9.59 3.002 1.34 5.035 1.555 6.828 1.742 1.105 0.117 2.061 0.217 3.186 0.561 1.053 0.322 0.803 4.383 0.721 5.717-0.082 1.318-0.143 2.291 0.17 2.951 0.391 2.334 2.788 13.496 13.684 19.551-0.982 1.107-4.27 3.148-7.113 3.795h7.201c1.656-1.117 2.945-2.416 3.139-3.701 0.154-1.027-0.34-1.951-1.322-2.473-10.988-5.805-12.658-17.844-12.674-17.963l-0.105-0.846-0.045-0.02c0.012-0.33 0.037-0.746 0.061-1.109 0.191-3.09 0.479-7.758-2.84-8.771-1.4-0.428-2.594-0.553-3.746-0.674-1.725-0.182-3.352-0.354-5.92-1.5-2.512-1.117-2.459-1.982-1.764-6.381 0.174-1.104 0.373-2.354 0.531-3.783 0.65-5.877 2.787-8.096 4.617-9.76 1.404-0.119 2.826-0.182 4.26-0.182 3.657 0 7.336 0.416 10.936 1.236 12.771 2.91 23.645 10.617 30.617 21.705 4.281 6.805 6.768 14.383 7.385 22.176-0.297 4.367-4.828 6.713-9.629 9.188-1.752 0.904-3.52 1.82-5.086 2.857h6.092c0.123-0.064 0.244-0.127 0.369-0.191 2.941-1.516 6.102-3.146 8.328-5.418-0.1 1.869-0.311 3.74-0.623 5.609h3.049c0.641-4.037 0.811-8.088 0.51-12.088-1e-3 -0.042 7e-3 -0.083 9e-3 -0.128z" />
</svg>